<svg version="1.2" xmlns="http://www.w3.org/2000/svg" viewBox="0 0 160 120" width="160" height="120">
	<title>logo-svg</title>
	<defs>
		<linearGradient id="g1" x2="1" gradientUnits="userSpaceOnUse" gradientTransform="matrix(-0.659,-73.573,160.686,-1.44,77.921,95.912)">
			<stop offset="0" stop-color="#acf2c0"/>
			<stop offset="1" stop-color="#acc4f8"/>
		</linearGradient>
		<linearGradient id="g2" x2="1" gradientUnits="userSpaceOnUse" gradientTransform="matrix(-31.219,77.591,-84.573,-34.028,95.382,16.37)">
			<stop offset="0" stop-color="#59e382"/>
			<stop offset="1" stop-color="#5a81fa"/>
		</linearGradient>
	</defs>
	<style>
		.s0 { fill: url(#g1) } 
		.s1 { fill: url(#g2) } 
		.s2 { fill: #a7a5a5 } 
		.s3 { fill: #909090 } 
		.s4 { fill: #838383 } 
		.s5 { fill: #686767 } 
		.s6 { mix-blend-mode: color-burn;fill: #d9d9d9 } 
	</style>
	<path id="Layer" class="s0" d="m37.4 59.5c0.1 9.7 4.4 19.1 12 25.9 7.6 6.8 17.9 10.6 28.5 10.5 10.7-0.1 20.9-4.1 28.3-11 7.5-7 11.6-16.4 11.5-26.1l-40.1 0.3z"/>
	<path id="Layer" class="s1" d="m46.9 83.7c-6.1-5.9-10.3-13.3-12-21.4-1.7-8-0.8-16.4 2.5-23.9 3.4-7.6 9.1-14.1 16.3-18.6 7.3-4.5 15.9-6.9 24.6-6.8 8.7 0.1 17.3 2.6 24.5 7.2 7.3 4.6 12.9 11.1 16.2 18.7 3.4 7.7 4.2 16 2.5 24.1-1.7 8-5.9 15.4-12.1 21.1l-6.6-6.2c4.9-4.6 8.2-10.4 9.5-16.7 1.4-6.4 0.7-13-1.9-19-2.6-6-7.1-11.1-12.8-14.7-5.7-3.7-12.4-5.6-19.3-5.7-6.9 0-13.6 1.8-19.4 5.4-5.7 3.5-10.2 8.6-12.8 14.6-2.7 5.9-3.4 12.5-2 18.9 1.3 6.3 4.6 12.2 9.5 16.8z"/>
	<path id="Layer" class="s2" d="m31 119.8c-6.2 0-11.3-4.5-11.3-10.2 0-5.6 5.1-10.2 11.3-10.2 6.2 0 11.3 4.6 11.3 10.2 0 5.7-5.1 10.2-11.3 10.2z"/>
	<path id="Layer" class="s2" d="m124.8 119.8c-6.3 0-11.3-4.5-11.3-10.2 0-5.6 5-10.2 11.3-10.2 6.2 0 11.2 4.6 11.2 10.2 0 5.7-5 10.2-11.2 10.2z"/>
	<path id="Layer" class="s3" d="m114.5 109.3c-9.1 0-16.5-7-16.5-15.6 0-8.5 7.4-15.5 16.5-15.5 9.2 0 16.6 7 16.6 15.5 0 8.6-7.4 15.6-16.6 15.6z"/>
	<path id="Layer" class="s3" d="m42.3 109.3c-9.4 0-16.9-7-16.9-15.6 0-8.5 7.5-15.5 16.9-15.5 9.3 0 16.9 7 16.9 15.5 0 8.6-7.6 15.6-16.9 15.6z"/>
	<path id="Layer" class="s4" d="m55.3 90.9c-10.7 0-19.4-8.2-19.4-18.3 0-10.1 8.7-18.3 19.4-18.3 10.7 0 19.4 8.2 19.4 18.3 0 10.1-8.7 18.3-19.4 18.3z"/>
	<path id="Layer" class="s4" d="m102.6 90.9c-10.8 0-19.4-8.2-19.4-18.3 0-10.1 8.6-18.3 19.4-18.3 10.7 0 19.3 8.2 19.3 18.3 0 10.1-8.6 18.3-19.3 18.3z"/>
	<path id="Layer" class="s5" d="m77.9 72.6c-12.3 0-22.2-9.3-22.2-20.8 0-11.5 9.9-20.8 22.2-20.8 12.3 0 22.2 9.3 22.2 20.8 0 11.5-9.9 20.8-22.2 20.8z"/>
	<g id="Layer">
		<path id="Layer" class="s6" d="m151.6 107.2c-4.7 3.7-24.5-11.1-44.5-33.2-19.9-22.2-32.2-43.1-27.5-46.8 4.6-3.8 24.5 11.1 44.4 33.2 19.9 22.1 32.2 43 27.6 46.8z"/>
	</g>
	<g id="Layer">
		<path id="Layer" class="s6" d="m7.2 104.6c-4-3.2 8.1-23.1 27-44.5 18.9-21.5 37.4-36.3 41.4-33.1 4 3.2-8 23-26.9 44.5-18.9 21.4-37.5 36.2-41.5 33.1z"/>
	</g>
</svg>