<svg width="160" height="120" viewBox="0 0 160 120" fill="none" xmlns="http://www.w3.org/2000/svg">
<path d="M37.3811 59.4858C37.4789 69.2421 41.805 78.5609 49.4078 85.3921C57.0106 92.2233 67.2672 96.0074 77.9213 95.9119C88.5754 95.8164 98.7544 91.8492 106.219 84.8829C113.683 77.9166 117.822 68.522 117.724 58.7656L77.5526 59.1257L37.3811 59.4858Z" fill="url(#paint0_linear_41_2003)"/>
<path d="M46.9254 83.6773C40.7608 77.825 36.5695 70.3952 34.8815 62.3272C33.1935 54.2593 34.0845 45.9156 37.442 38.3514C40.7995 30.7871 46.4726 24.342 53.7439 19.8311C61.0152 15.3201 69.5582 12.9459 78.2924 13.0087C87.0267 13.0715 95.56 15.5685 102.813 20.1839C110.066 24.7993 115.714 31.3258 119.041 38.9382C122.369 46.5505 123.227 54.9067 121.507 62.9501C119.787 70.9936 115.566 78.3629 109.379 84.1264L102.774 77.8562C107.65 73.3141 110.977 67.5063 112.332 61.1673C113.687 54.8284 113.011 48.2429 110.389 42.2436C107.767 36.2444 103.316 31.1009 97.5997 27.4636C91.8835 23.8262 85.1584 21.8583 78.275 21.8088C71.3916 21.7593 64.659 23.6304 58.9285 27.1855C53.198 30.7405 48.7271 35.8199 46.0811 41.7812C43.4351 47.7426 42.7328 54.3181 44.0632 60.6764C45.3935 67.0347 48.6966 72.8901 53.5548 77.5022L46.9254 83.6773Z" fill="url(#paint1_linear_41_2003)"/>
<ellipse cx="31.0084" cy="109.608" rx="11.278" ry="10.2206" fill="#A7A5A5"/>
<ellipse cx="124.756" cy="109.608" rx="11.278" ry="10.2206" fill="#A7A5A5"/>
<ellipse cx="114.536" cy="93.748" rx="16.5645" ry="15.5072" fill="#909090"/>
<ellipse cx="42.2864" cy="93.748" rx="16.9169" ry="15.5072" fill="#909090"/>
<ellipse cx="55.3267" cy="72.6018" rx="19.384" ry="18.3267" fill="#838383"/>
<ellipse cx="102.553" cy="72.6018" rx="19.384" ry="18.3267" fill="#838383"/>
<ellipse cx="77.8825" cy="51.8081" rx="22.2035" ry="20.7937" fill="#686767"/>
<g style="mix-blend-mode:color-burn">
<ellipse cx="10.8192" cy="53.8032" rx="10.8192" ry="53.8032" transform="matrix(0.778904 -0.627143 0.669115 0.743159 71.1449 33.9699)" fill="#D9D9D9"/>
</g>
<g style="mix-blend-mode:color-burn">
<ellipse cx="9.21092" cy="51.7047" rx="9.21092" ry="51.7047" transform="matrix(0.78521 0.61923 -0.661416 0.750019 68.3969 21.2993)" fill="#D9D9D9"/>
</g>
<defs>
<linearGradient id="paint0_linear_41_2003" x1="77.9213" y1="95.9119" x2="77.2619" y2="22.3387" gradientUnits="userSpaceOnUse">
<stop stop-color="#ACF2C0"/>
<stop offset="1" stop-color="#ACC4F8"/>
</linearGradient>
<linearGradient id="paint1_linear_41_2003" x1="95.3825" y1="16.37" x2="64.1635" y2="93.9615" gradientUnits="userSpaceOnUse">
<stop stop-color="#59E382"/>
<stop offset="1" stop-color="#5A81FA"/>
</linearGradient>
</defs>
</svg>
